<svg width="514.125" height="44.696" viewBox="0 0 514.125 44.696" xmlns="http://www.w3.org/2000/svg"><g id="svgGroup" stroke-linecap="round" fill-rule="evenodd" font-size="9pt" stroke="#000" stroke-width="0.2mm" fill="#000" style="stroke:#000;stroke-width:0.2mm;fill:#000"><path d="M 0 0.469 L 3.82 0.469 L 16.406 30.586 L 29.039 0.469 L 32.883 0.469 L 32.883 34.594 L 30 34.594 L 30 19.734 L 30.234 4.5 L 17.531 34.594 L 15.305 34.594 L 2.648 4.617 L 2.883 19.641 L 2.883 34.594 L 0 34.594 L 0 0.469 Z M 362.672 9.234 L 365.367 9.234 L 365.461 13.359 A 10.312 10.312 0 0 1 367.154 11.243 A 8.666 8.666 0 0 1 368.977 9.914 A 9.524 9.524 0 0 1 373.185 8.776 A 11.291 11.291 0 0 1 373.664 8.766 Q 379.664 8.766 381.281 13.688 Q 382.641 11.32 384.914 10.043 Q 387.188 8.766 389.93 8.766 Q 398.058 8.766 398.249 17.61 A 19.356 19.356 0 0 1 398.25 17.672 L 398.25 34.594 L 395.438 34.594 L 395.438 17.883 A 12.853 12.853 0 0 0 395.302 16.043 Q 394.992 14.004 393.973 12.844 Q 392.531 11.203 389.273 11.203 A 8.091 8.091 0 0 0 386.484 11.716 A 7.256 7.256 0 0 0 384.164 13.16 A 6.916 6.916 0 0 0 381.844 17.813 L 381.844 34.594 L 379.031 34.594 L 379.031 17.672 A 11.301 11.301 0 0 0 378.886 15.883 Q 378.728 14.941 378.397 14.19 A 4.845 4.845 0 0 0 377.496 12.809 A 4.678 4.678 0 0 0 375.577 11.605 Q 374.414 11.203 372.844 11.203 A 7.755 7.755 0 0 0 370.383 11.581 A 6.738 6.738 0 0 0 368.297 12.715 Q 366.519 14.13 365.605 16.83 A 13.671 13.671 0 0 0 365.484 17.203 L 365.484 34.594 L 362.672 34.594 L 362.672 9.234 Z M 182.156 22.055 L 182.156 21.68 Q 182.156 17.192 183.655 14.109 A 11.142 11.142 0 0 1 184.793 12.246 Q 187.43 8.766 191.953 8.766 A 10.29 10.29 0 0 1 195.455 9.334 Q 198.133 10.296 199.828 12.891 L 199.969 9.234 L 202.594 9.234 L 202.594 34.078 Q 202.594 38.977 199.852 41.836 A 9.09 9.09 0 0 1 194.775 44.494 A 13.127 13.127 0 0 1 192.422 44.695 A 11.285 11.285 0 0 1 187.371 43.512 A 10.631 10.631 0 0 1 184.991 41.932 A 9.081 9.081 0 0 1 183.586 40.359 L 185.156 38.672 A 11.174 11.174 0 0 0 187.441 40.828 A 8.231 8.231 0 0 0 192.234 42.328 A 9.605 9.605 0 0 0 194.469 42.083 A 6.429 6.429 0 0 0 197.719 40.254 A 7.046 7.046 0 0 0 199.374 37.272 Q 199.729 36.024 199.758 34.5 L 199.758 31.313 A 8.74 8.74 0 0 1 193.345 34.984 A 12.826 12.826 0 0 1 191.906 35.063 Q 187.5 35.063 184.828 31.547 A 12.221 12.221 0 0 1 182.824 27.416 Q 182.156 25.043 182.156 22.055 Z M 429.938 22.055 L 429.938 21.68 Q 429.938 17.192 431.436 14.109 A 11.142 11.142 0 0 1 432.574 12.246 Q 435.211 8.766 439.734 8.766 A 10.29 10.29 0 0 1 443.237 9.334 Q 445.914 10.296 447.609 12.891 L 447.75 9.234 L 450.375 9.234 L 450.375 34.078 Q 450.375 38.977 447.633 41.836 A 9.09 9.09 0 0 1 442.556 44.494 A 13.127 13.127 0 0 1 440.203 44.695 A 11.285 11.285 0 0 1 435.152 43.512 A 10.631 10.631 0 0 1 432.772 41.932 A 9.081 9.081 0 0 1 431.367 40.359 L 432.938 38.672 A 11.174 11.174 0 0 0 435.222 40.828 A 8.231 8.231 0 0 0 440.016 42.328 A 9.605 9.605 0 0 0 442.25 42.083 A 6.429 6.429 0 0 0 445.5 40.254 A 7.046 7.046 0 0 0 447.155 37.272 Q 447.51 36.024 447.539 34.5 L 447.539 31.313 A 8.74 8.74 0 0 1 441.127 34.984 A 12.826 12.826 0 0 1 439.687 35.063 Q 435.281 35.063 432.609 31.547 A 12.221 12.221 0 0 1 430.605 27.416 Q 429.938 25.043 429.938 22.055 Z M 493.688 22.055 L 493.688 21.68 Q 493.688 17.192 495.186 14.109 A 11.142 11.142 0 0 1 496.324 12.246 Q 498.961 8.766 503.484 8.766 A 10.29 10.29 0 0 1 506.987 9.334 Q 509.664 10.296 511.359 12.891 L 511.5 9.234 L 514.125 9.234 L 514.125 34.078 Q 514.125 38.977 511.383 41.836 A 9.09 9.09 0 0 1 506.306 44.494 A 13.127 13.127 0 0 1 503.953 44.695 A 11.285 11.285 0 0 1 498.902 43.512 A 10.631 10.631 0 0 1 496.522 41.932 A 9.081 9.081 0 0 1 495.117 40.359 L 496.688 38.672 A 11.174 11.174 0 0 0 498.972 40.828 A 8.231 8.231 0 0 0 503.766 42.328 A 9.605 9.605 0 0 0 506 42.083 A 6.429 6.429 0 0 0 509.25 40.254 A 7.046 7.046 0 0 0 510.905 37.272 Q 511.26 36.024 511.289 34.5 L 511.289 31.313 A 8.74 8.74 0 0 1 504.877 34.984 A 12.826 12.826 0 0 1 503.437 35.063 Q 499.031 35.063 496.359 31.547 A 12.221 12.221 0 0 1 494.355 27.416 Q 493.688 25.043 493.688 22.055 Z M 281.016 16.336 L 278.203 16.336 A 4.453 4.453 0 0 0 276.725 12.965 A 6.061 6.061 0 0 0 276.34 12.633 A 6.706 6.706 0 0 0 273.358 11.308 A 9.317 9.317 0 0 0 271.641 11.156 A 10.117 10.117 0 0 0 269.812 11.312 Q 268.279 11.594 267.199 12.387 A 4.357 4.357 0 0 0 266.146 13.461 A 3.72 3.72 0 0 0 265.523 15.586 A 4.123 4.123 0 0 0 265.72 16.89 A 3.312 3.312 0 0 0 266.918 18.527 A 5.983 5.983 0 0 0 267.868 19.092 Q 269.336 19.811 272.004 20.438 A 43.08 43.08 0 0 1 274.032 20.963 Q 275.922 21.505 277.142 22.09 A 9.987 9.987 0 0 1 277.535 22.289 Q 279.204 23.182 280.092 24.403 A 5.426 5.426 0 0 1 280.266 24.656 A 5.49 5.49 0 0 1 281.041 26.669 A 7.473 7.473 0 0 1 281.156 28.008 A 6.39 6.39 0 0 1 280.597 30.715 Q 279.993 32.025 278.737 33.011 A 7.907 7.907 0 0 1 278.566 33.141 A 9.29 9.29 0 0 1 275.261 34.668 Q 273.695 35.063 271.805 35.063 A 14.925 14.925 0 0 1 268.733 34.764 Q 266.758 34.349 265.234 33.355 A 8.982 8.982 0 0 1 264.621 32.918 Q 261.867 30.774 261.867 27.492 L 264.68 27.492 A 5.414 5.414 0 0 0 265.143 29.406 A 4.814 4.814 0 0 0 266.754 31.324 A 6.854 6.854 0 0 0 269.011 32.363 Q 269.947 32.612 271.05 32.675 A 13.388 13.388 0 0 0 271.805 32.695 A 10.873 10.873 0 0 0 273.765 32.529 Q 274.877 32.325 275.771 31.871 A 5.968 5.968 0 0 0 276.539 31.406 A 4.882 4.882 0 0 0 277.567 30.44 A 3.63 3.63 0 0 0 278.344 28.149 A 4.175 4.175 0 0 0 277.963 26.347 Q 277.571 25.515 276.776 24.881 A 5.196 5.196 0 0 0 276.668 24.797 Q 275.062 23.584 271.895 22.877 A 25.978 25.978 0 0 0 271.617 22.816 A 37.443 37.443 0 0 1 269.655 22.349 Q 267.759 21.839 266.508 21.239 A 10.366 10.366 0 0 1 266.379 21.176 A 9.034 9.034 0 0 1 265.07 20.39 Q 264.163 19.728 263.613 18.914 Q 262.711 17.578 262.711 15.68 A 5.92 5.92 0 0 1 264.683 11.18 A 7.986 7.986 0 0 1 265.219 10.723 A 8.99 8.99 0 0 1 268.903 9.041 A 12.918 12.918 0 0 1 271.641 8.766 A 13.968 13.968 0 0 1 274.473 9.037 Q 276.805 9.52 278.449 10.863 A 6.667 6.667 0 0 1 280.993 15.714 A 8.431 8.431 0 0 1 281.016 16.336 Z M 209.906 9.234 L 212.578 9.234 L 212.672 13.57 A 10.923 10.923 0 0 1 214.503 11.286 A 9.307 9.307 0 0 1 216.234 9.996 Q 218.367 8.766 220.945 8.766 A 11.481 11.481 0 0 1 223.264 8.984 Q 224.636 9.268 225.676 9.918 A 5.916 5.916 0 0 1 227.016 11.063 A 7.269 7.269 0 0 1 228.364 13.461 Q 229.018 15.333 229.031 17.953 L 229.031 34.594 L 226.242 34.594 L 226.242 17.93 Q 226.219 14.531 224.801 12.867 Q 223.619 11.481 221.258 11.249 A 10.191 10.191 0 0 0 220.266 11.203 Q 217.664 11.203 215.66 12.832 A 9.071 9.071 0 0 0 213.241 15.915 A 11.546 11.546 0 0 0 212.695 17.227 L 212.695 34.594 L 209.906 34.594 L 209.906 9.234 Z M 468.445 9.234 L 471.117 9.234 L 471.211 13.57 A 10.923 10.923 0 0 1 473.042 11.286 A 9.307 9.307 0 0 1 474.773 9.996 Q 476.906 8.766 479.484 8.766 A 11.481 11.481 0 0 1 481.803 8.984 Q 483.176 9.268 484.215 9.918 A 5.916 5.916 0 0 1 485.555 11.063 A 7.269 7.269 0 0 1 486.903 13.461 Q 487.557 15.333 487.57 17.953 L 487.57 34.594 L 484.781 34.594 L 484.781 17.93 Q 484.758 14.531 483.34 12.867 Q 482.158 11.481 479.797 11.249 A 10.191 10.191 0 0 0 478.805 11.203 Q 476.203 11.203 474.199 12.832 A 9.071 9.071 0 0 0 471.78 15.915 A 11.546 11.546 0 0 0 471.234 17.227 L 471.234 34.594 L 468.445 34.594 L 468.445 9.234 Z M 82.945 34.594 L 82.898 31.383 A 8.146 8.146 0 0 1 77.844 34.738 A 13.274 13.274 0 0 1 74.813 35.063 Q 70.758 35.063 68.648 32.707 Q 66.539 30.352 66.492 25.734 L 66.492 9.234 L 69.281 9.234 L 69.281 25.383 A 13.145 13.145 0 0 0 69.523 28.026 Q 70.357 32.069 74.066 32.558 A 8.228 8.228 0 0 0 75.141 32.625 A 11.143 11.143 0 0 0 78.024 32.28 Q 81.402 31.375 82.672 28.096 A 9.188 9.188 0 0 0 82.852 27.586 L 82.852 9.234 L 85.664 9.234 L 85.664 34.594 L 82.945 34.594 Z M 330.07 26.766 L 332.766 26.766 A 7.941 7.941 0 0 1 331.313 30.996 A 9.071 9.071 0 0 1 327.899 33.916 A 10.63 10.63 0 0 1 327.762 33.984 A 10.701 10.701 0 0 1 323.016 35.063 A 11.573 11.573 0 0 1 319.432 34.533 A 9.317 9.317 0 0 1 315.105 31.594 A 11.839 11.839 0 0 1 312.746 26.935 Q 312.188 24.829 312.188 22.266 L 312.188 21.422 Q 312.188 17.672 313.5 14.789 Q 314.813 11.906 317.262 10.336 Q 319.711 8.766 322.992 8.766 Q 327.164 8.766 329.871 11.25 A 8.813 8.813 0 0 1 332.671 16.74 A 11.878 11.878 0 0 1 332.766 17.789 L 330.07 17.789 A 7.934 7.934 0 0 0 329.575 15.424 A 6.491 6.491 0 0 0 327.926 12.984 A 6.724 6.724 0 0 0 323.897 11.201 A 8.972 8.972 0 0 0 322.992 11.156 A 8.392 8.392 0 0 0 320.383 11.542 A 6.659 6.659 0 0 0 317.098 13.899 Q 315.43 16.078 315.088 19.65 A 20.33 20.33 0 0 0 315 21.586 L 315 22.406 A 18.093 18.093 0 0 0 315.226 25.361 Q 315.688 28.15 317.098 29.977 Q 319.195 32.695 323.016 32.695 A 8.589 8.589 0 0 0 325.397 32.379 A 6.861 6.861 0 0 0 327.926 31.043 A 5.79 5.79 0 0 0 330.055 26.969 A 7.247 7.247 0 0 0 330.07 26.766 Z M 59.883 34.594 L 56.883 34.594 Q 56.509 33.534 56.374 31.57 A 28.029 28.029 0 0 1 56.344 31.055 Q 54.867 32.977 52.582 34.02 A 11.521 11.521 0 0 1 47.742 35.063 A 10.682 10.682 0 0 1 45.147 34.764 A 7.644 7.644 0 0 1 41.824 33.024 A 6.596 6.596 0 0 1 39.571 28.253 A 8.324 8.324 0 0 1 39.562 27.867 Q 39.563 24.37 42.312 22.252 A 8.999 8.999 0 0 1 42.645 22.008 A 10.682 10.682 0 0 1 45.741 20.553 Q 47.174 20.126 48.901 19.959 A 24.272 24.272 0 0 1 51.234 19.852 L 56.32 19.852 L 56.32 16.969 Q 56.32 14.25 54.645 12.691 A 5.365 5.365 0 0 0 52.594 11.526 Q 51.771 11.262 50.774 11.175 A 11.759 11.759 0 0 0 49.758 11.133 Q 46.828 11.133 44.906 12.633 Q 42.984 14.133 42.984 16.242 L 40.172 16.219 A 6.06 6.06 0 0 1 41.804 12.082 A 9.159 9.159 0 0 1 42.984 10.981 A 10.248 10.248 0 0 1 47.987 8.896 A 13.628 13.628 0 0 1 49.898 8.766 Q 54.141 8.766 56.59 10.887 Q 59.039 13.008 59.109 16.805 L 59.109 28.805 A 28.105 28.105 0 0 0 59.171 30.728 Q 59.298 32.577 59.69 33.792 A 6.331 6.331 0 0 0 59.883 34.313 L 59.883 34.594 Z M 176.578 34.594 L 173.578 34.594 Q 173.204 33.534 173.069 31.57 A 28.029 28.029 0 0 1 173.039 31.055 Q 171.563 32.977 169.277 34.02 A 11.521 11.521 0 0 1 164.437 35.063 A 10.682 10.682 0 0 1 161.843 34.764 A 7.644 7.644 0 0 1 158.52 33.024 A 6.596 6.596 0 0 1 156.267 28.253 A 8.324 8.324 0 0 1 156.258 27.867 Q 156.258 24.37 159.007 22.252 A 8.999 8.999 0 0 1 159.34 22.008 A 10.682 10.682 0 0 1 162.436 20.553 Q 163.87 20.126 165.596 19.959 A 24.272 24.272 0 0 1 167.93 19.852 L 173.016 19.852 L 173.016 16.969 Q 173.016 14.25 171.34 12.691 A 5.365 5.365 0 0 0 169.29 11.526 Q 168.467 11.262 167.469 11.175 A 11.759 11.759 0 0 0 166.453 11.133 Q 163.523 11.133 161.602 12.633 Q 159.68 14.133 159.68 16.242 L 156.867 16.219 A 6.06 6.06 0 0 1 158.499 12.082 A 9.159 9.159 0 0 1 159.68 10.981 A 10.248 10.248 0 0 1 164.683 8.896 A 13.628 13.628 0 0 1 166.594 8.766 Q 170.836 8.766 173.285 10.887 Q 175.734 13.008 175.805 16.805 L 175.805 28.805 A 28.105 28.105 0 0 0 175.866 30.728 Q 175.993 32.577 176.386 33.792 A 6.331 6.331 0 0 0 176.578 34.313 L 176.578 34.594 Z M 424.359 34.594 L 421.359 34.594 Q 420.985 33.534 420.851 31.57 A 28.029 28.029 0 0 1 420.82 31.055 Q 419.344 32.977 417.059 34.02 A 11.521 11.521 0 0 1 412.219 35.063 A 10.682 10.682 0 0 1 409.624 34.764 A 7.644 7.644 0 0 1 406.301 33.024 A 6.596 6.596 0 0 1 404.048 28.253 A 8.324 8.324 0 0 1 404.039 27.867 Q 404.039 24.37 406.788 22.252 A 8.999 8.999 0 0 1 407.121 22.008 A 10.682 10.682 0 0 1 410.218 20.553 Q 411.651 20.126 413.377 19.959 A 24.272 24.272 0 0 1 415.711 19.852 L 420.797 19.852 L 420.797 16.969 Q 420.797 14.25 419.121 12.691 A 5.365 5.365 0 0 0 417.071 11.526 Q 416.248 11.262 415.25 11.175 A 11.759 11.759 0 0 0 414.234 11.133 Q 411.305 11.133 409.383 12.633 Q 407.461 14.133 407.461 16.242 L 404.648 16.219 A 6.06 6.06 0 0 1 406.28 12.082 A 9.159 9.159 0 0 1 407.461 10.981 A 10.248 10.248 0 0 1 412.464 8.896 A 13.628 13.628 0 0 1 414.375 8.766 Q 418.617 8.766 421.066 10.887 Q 423.516 13.008 423.586 16.805 L 423.586 28.805 A 28.105 28.105 0 0 0 423.647 30.728 Q 423.774 32.577 424.167 33.792 A 6.331 6.331 0 0 0 424.359 34.313 L 424.359 34.594 Z M 125.367 34.594 L 116.039 34.594 L 116.039 0.469 L 125.578 0.469 A 15.798 15.798 0 0 1 130.254 1.142 A 13.962 13.962 0 0 1 133.102 2.379 Q 136.43 4.289 138.293 7.852 A 16.372 16.372 0 0 1 140.025 13.615 A 20.441 20.441 0 0 1 140.156 15.961 L 140.156 19.102 A 19.211 19.211 0 0 1 139.649 23.604 A 15.631 15.631 0 0 1 138.305 27.211 A 13.174 13.174 0 0 1 133.09 32.672 A 14.582 14.582 0 0 1 127.485 34.474 A 18.23 18.23 0 0 1 125.367 34.594 Z M 289.008 2.742 L 291.82 2.742 L 291.82 9.234 L 297.07 9.234 L 297.07 11.531 L 291.82 11.531 L 291.82 28.43 A 9.377 9.377 0 0 0 291.881 29.531 Q 292.024 30.737 292.506 31.462 A 2.691 2.691 0 0 0 292.582 31.57 A 2.36 2.36 0 0 0 293.762 32.404 Q 294.172 32.543 294.679 32.584 A 5.505 5.505 0 0 0 295.125 32.602 A 6.471 6.471 0 0 0 295.531 32.587 Q 296.221 32.543 297.398 32.367 L 297.516 34.664 Q 296.414 35.063 294.516 35.063 A 7.812 7.812 0 0 1 292.942 34.915 Q 292.026 34.726 291.336 34.297 A 3.887 3.887 0 0 1 290.32 33.387 A 5.415 5.415 0 0 1 289.458 31.728 Q 289.205 30.96 289.094 30.02 A 13.396 13.396 0 0 1 289.008 28.453 L 289.008 11.531 L 284.344 11.531 L 284.344 9.234 L 289.008 9.234 L 289.008 2.742 Z M 125.625 2.93 L 118.922 2.93 L 118.922 32.156 L 125.391 32.156 Q 130.781 32.156 134.039 28.582 Q 137.297 25.008 137.297 18.914 L 137.297 15.914 A 17.504 17.504 0 0 0 136.864 11.91 A 11.979 11.979 0 0 0 134.086 6.492 A 10.695 10.695 0 0 0 126.759 2.978 A 14.699 14.699 0 0 0 125.625 2.93 Z M 234.727 22.102 L 234.727 21.539 Q 234.727 17.883 236.145 14.953 A 11.181 11.181 0 0 1 238.579 11.604 A 10.499 10.499 0 0 1 240.152 10.395 A 10.679 10.679 0 0 1 245.515 8.776 A 12.904 12.904 0 0 1 246.023 8.766 A 11.716 11.716 0 0 1 250.019 9.421 A 10.149 10.149 0 0 1 254.227 12.316 A 12.139 12.139 0 0 1 256.953 17.774 A 17.823 17.823 0 0 1 257.367 21.727 L 257.367 22.313 A 16.413 16.413 0 0 1 256.919 26.219 A 13.746 13.746 0 0 1 255.949 28.934 A 11.15 11.15 0 0 1 253.79 32.018 A 10.141 10.141 0 0 1 251.953 33.469 A 10.732 10.732 0 0 1 246.935 35.034 A 13.137 13.137 0 0 1 246.07 35.063 A 11.621 11.621 0 0 1 242.022 34.383 A 10.212 10.212 0 0 1 237.879 31.512 A 12.133 12.133 0 0 1 235.134 26.015 A 17.796 17.796 0 0 1 234.727 22.102 Z M 354.211 0.469 L 354.211 34.594 L 351.328 34.594 L 351.328 0.469 L 354.211 0.469 Z M 237.539 21.797 L 237.539 22.313 A 14.407 14.407 0 0 0 237.898 25.616 A 10.268 10.268 0 0 0 239.895 29.777 A 7.476 7.476 0 0 0 245.309 32.665 A 9.456 9.456 0 0 0 246.07 32.695 A 7.994 7.994 0 0 0 249.313 32.054 A 7.697 7.697 0 0 0 252.223 29.777 Q 254.578 26.859 254.578 22.078 L 254.578 21.539 A 13.622 13.622 0 0 0 254.136 18.018 A 11.954 11.954 0 0 0 253.5 16.219 A 9.586 9.586 0 0 0 252.158 14.019 A 8.006 8.006 0 0 0 250.477 12.481 A 7.671 7.671 0 0 0 246.277 11.16 A 9.34 9.34 0 0 0 246.023 11.156 A 7.727 7.727 0 0 0 242.536 11.932 Q 241.063 12.664 239.915 14.087 A 9.497 9.497 0 0 0 239.906 14.098 A 10.321 10.321 0 0 0 237.93 18.231 Q 237.539 19.864 237.539 21.797 Z M 199.758 27.984 L 199.758 16.195 A 9.335 9.335 0 0 0 198.688 14.225 A 7.23 7.23 0 0 0 196.922 12.481 A 7.164 7.164 0 0 0 193.873 11.304 A 9.443 9.443 0 0 0 192.469 11.203 A 7.188 7.188 0 0 0 189.898 11.644 Q 188.173 12.299 186.998 13.929 A 7.985 7.985 0 0 0 186.961 13.981 Q 184.992 16.758 184.992 22.172 A 19.657 19.657 0 0 0 185.202 25.135 Q 185.443 26.714 185.962 28.001 A 9.253 9.253 0 0 0 186.937 29.824 A 6.17 6.17 0 0 0 191.355 32.557 A 8.089 8.089 0 0 0 192.422 32.625 Q 197.102 32.625 199.313 28.837 A 10.284 10.284 0 0 0 199.758 27.984 Z M 447.539 27.984 L 447.539 16.195 A 9.335 9.335 0 0 0 446.469 14.225 A 7.23 7.23 0 0 0 444.703 12.481 A 7.164 7.164 0 0 0 441.654 11.304 A 9.443 9.443 0 0 0 440.25 11.203 A 7.188 7.188 0 0 0 437.679 11.644 Q 435.954 12.299 434.779 13.929 A 7.985 7.985 0 0 0 434.742 13.981 Q 432.773 16.758 432.773 22.172 A 19.657 19.657 0 0 0 432.983 25.135 Q 433.224 26.714 433.743 28.001 A 9.253 9.253 0 0 0 434.719 29.824 A 6.17 6.17 0 0 0 439.136 32.557 A 8.089 8.089 0 0 0 440.203 32.625 Q 444.883 32.625 447.095 28.837 A 10.284 10.284 0 0 0 447.539 27.984 Z M 511.289 27.984 L 511.289 16.195 A 9.335 9.335 0 0 0 510.219 14.225 A 7.23 7.23 0 0 0 508.453 12.481 A 7.164 7.164 0 0 0 505.404 11.304 A 9.443 9.443 0 0 0 504 11.203 A 7.188 7.188 0 0 0 501.429 11.644 Q 499.704 12.299 498.529 13.929 A 7.985 7.985 0 0 0 498.492 13.981 Q 496.523 16.758 496.523 22.172 A 19.657 19.657 0 0 0 496.733 25.135 Q 496.974 26.714 497.493 28.001 A 9.253 9.253 0 0 0 498.469 29.824 A 6.17 6.17 0 0 0 502.886 32.557 A 8.089 8.089 0 0 0 503.953 32.625 Q 508.633 32.625 510.845 28.837 A 10.284 10.284 0 0 0 511.289 27.984 Z M 96.094 9.234 L 96.094 34.594 L 93.281 34.594 L 93.281 9.234 L 96.094 9.234 Z M 149.953 9.234 L 149.953 34.594 L 147.141 34.594 L 147.141 9.234 L 149.953 9.234 Z M 306.023 9.234 L 306.023 34.594 L 303.211 34.594 L 303.211 9.234 L 306.023 9.234 Z M 460.828 9.234 L 460.828 34.594 L 458.016 34.594 L 458.016 9.234 L 460.828 9.234 Z M 56.32 27.586 L 56.32 22.008 L 51.305 22.008 Q 48.552 22.039 46.586 22.69 A 8.433 8.433 0 0 0 44.742 23.543 A 5.589 5.589 0 0 0 43.37 24.727 A 4.45 4.45 0 0 0 42.375 27.633 A 4.692 4.692 0 0 0 42.821 29.694 A 4.702 4.702 0 0 0 43.957 31.172 A 5.449 5.449 0 0 0 46.581 32.441 A 7.713 7.713 0 0 0 48.07 32.578 Q 50.883 32.578 53.098 31.219 A 7.999 7.999 0 0 0 56.32 27.586 Z M 173.016 27.586 L 173.016 22.008 L 168 22.008 Q 165.247 22.039 163.281 22.69 A 8.433 8.433 0 0 0 161.437 23.543 A 5.589 5.589 0 0 0 160.066 24.727 A 4.45 4.45 0 0 0 159.07 27.633 A 4.692 4.692 0 0 0 159.517 29.694 A 4.702 4.702 0 0 0 160.652 31.172 A 5.449 5.449 0 0 0 163.276 32.441 A 7.713 7.713 0 0 0 164.766 32.578 Q 167.578 32.578 169.793 31.219 A 7.999 7.999 0 0 0 173.016 27.586 Z M 420.797 27.586 L 420.797 22.008 L 415.781 22.008 Q 413.028 22.039 411.062 22.69 A 8.433 8.433 0 0 0 409.219 23.543 A 5.589 5.589 0 0 0 407.847 24.727 A 4.45 4.45 0 0 0 406.852 27.633 A 4.692 4.692 0 0 0 407.298 29.694 A 4.702 4.702 0 0 0 408.434 31.172 A 5.449 5.449 0 0 0 411.058 32.441 A 7.713 7.713 0 0 0 412.547 32.578 Q 415.359 32.578 417.574 31.219 A 7.999 7.999 0 0 0 420.797 27.586 Z M 92.922 1.153 A 2.037 2.037 0 0 0 92.789 1.899 A 2.404 2.404 0 0 0 92.79 1.979 A 1.842 1.842 0 0 0 93.305 3.234 A 1.679 1.679 0 0 0 94.119 3.704 A 2.379 2.379 0 0 0 94.711 3.774 A 2.521 2.521 0 0 0 95.158 3.735 A 1.756 1.756 0 0 0 96.129 3.234 A 1.804 1.804 0 0 0 96.529 2.62 A 1.982 1.982 0 0 0 96.656 1.899 A 1.875 1.875 0 0 0 96.129 0.551 Q 95.602 0 94.711 0 A 2.466 2.466 0 0 0 94.277 0.037 A 1.702 1.702 0 0 0 93.305 0.551 A 1.868 1.868 0 0 0 92.922 1.153 Z M 146.781 1.153 A 2.037 2.037 0 0 0 146.648 1.899 A 2.404 2.404 0 0 0 146.65 1.979 A 1.842 1.842 0 0 0 147.164 3.234 A 1.679 1.679 0 0 0 147.979 3.704 A 2.379 2.379 0 0 0 148.57 3.774 A 2.521 2.521 0 0 0 149.018 3.735 A 1.756 1.756 0 0 0 149.988 3.234 A 1.804 1.804 0 0 0 150.388 2.62 A 1.982 1.982 0 0 0 150.516 1.899 A 1.875 1.875 0 0 0 149.988 0.551 Q 149.461 0 148.57 0 A 2.466 2.466 0 0 0 148.136 0.037 A 1.702 1.702 0 0 0 147.164 0.551 A 1.868 1.868 0 0 0 146.781 1.153 Z M 302.852 1.153 A 2.037 2.037 0 0 0 302.719 1.899 A 2.404 2.404 0 0 0 302.72 1.979 A 1.842 1.842 0 0 0 303.234 3.234 A 1.679 1.679 0 0 0 304.049 3.704 A 2.379 2.379 0 0 0 304.641 3.774 A 2.521 2.521 0 0 0 305.088 3.735 A 1.756 1.756 0 0 0 306.059 3.234 A 1.804 1.804 0 0 0 306.458 2.62 A 1.982 1.982 0 0 0 306.586 1.899 A 1.875 1.875 0 0 0 306.059 0.551 Q 305.531 0 304.641 0 A 2.466 2.466 0 0 0 304.206 0.037 A 1.702 1.702 0 0 0 303.234 0.551 A 1.868 1.868 0 0 0 302.852 1.153 Z M 457.656 1.153 A 2.037 2.037 0 0 0 457.523 1.899 A 2.404 2.404 0 0 0 457.525 1.979 A 1.842 1.842 0 0 0 458.039 3.234 A 1.679 1.679 0 0 0 458.854 3.704 A 2.379 2.379 0 0 0 459.445 3.774 A 2.521 2.521 0 0 0 459.893 3.735 A 1.756 1.756 0 0 0 460.863 3.234 A 1.804 1.804 0 0 0 461.263 2.62 A 1.982 1.982 0 0 0 461.391 1.899 A 1.875 1.875 0 0 0 460.863 0.551 Q 460.336 0 459.445 0 A 2.466 2.466 0 0 0 459.011 0.037 A 1.702 1.702 0 0 0 458.039 0.551 A 1.868 1.868 0 0 0 457.656 1.153 Z" vector-effect="non-scaling-stroke"/></g></svg>